<?xml version="1.0" standalone="no"?>
<!DOCTYPE svg PUBLIC "-//W3C//DTD SVG 20010904//EN"
 "http://www.w3.org/TR/2001/REC-SVG-20010904/DTD/svg10.dtd">
<svg version="1.0" xmlns="http://www.w3.org/2000/svg"
 width="256.000000pt" height="256.000000pt" viewBox="0 0 256.000000 256.000000"
 preserveAspectRatio="xMidYMid meet">

<g transform="translate(0.000000,256.000000) scale(0.100000,-0.100000)"
fill="#000000" stroke="none">
<path d="M203 2542 c-100 -35 -171 -115 -193 -216 -8 -36 -10 -314 -8 -931 3
-987 -3 -911 79 -1000 24 -26 61 -56 84 -68 39 -22 48 -22 564 -25 l524 -3 -7
23 c-24 84 -36 135 -36 150 0 17 -25 18 -465 18 -497 0 -509 1 -535 49 -7 13
-10 313 -10 892 l0 873 27 28 27 28 924 0 c614 0 930 -3 943 -10 48 -26 49
-37 49 -543 l0 -474 43 -13 c23 -7 63 -23 89 -36 26 -13 50 -24 53 -24 3 0 5
238 5 528 0 593 1 584 -72 667 -22 25 -64 58 -92 73 l-51 27 -945 2 c-887 2
-948 2 -997 -15z"/>
<path d="M453 2056 c-44 -20 -53 -43 -53 -141 0 -77 2 -88 24 -110 47 -47 188
-47 235 0 24 24 26 32 26 115 0 84 -2 91 -27 116 -23 23 -36 27 -100 31 -49 2
-83 -1 -105 -11z"/>
<path d="M919 2031 c-28 -28 -29 -34 -29 -116 0 -82 1 -88 29 -116 l29 -29
477 0 c308 0 483 4 496 10 32 18 49 64 49 135 0 75 -17 116 -55 133 -19 9
-153 12 -496 12 l-471 0 -29 -29z"/>
<path d="M454 1561 c-42 -18 -54 -50 -54 -144 0 -80 2 -90 25 -112 22 -23 32
-25 114 -25 81 0 93 2 118 24 27 23 28 28 28 115 0 86 -2 92 -28 118 -25 25
-35 28 -105 30 -42 2 -87 -1 -98 -6z"/>
<path d="M938 1555 c-15 -9 -32 -24 -38 -35 -13 -25 -13 -163 1 -193 21 -47
33 -48 399 -44 l345 3 87 32 c54 20 116 35 163 39 l77 6 -4 74 c-3 64 -7 76
-31 100 l-27 28 -473 2 c-403 2 -476 0 -499 -12z"/>
<path d="M1870 1153 c-215 -36 -400 -212 -456 -433 -36 -140 -2 -326 82 -447
205 -298 621 -338 875 -84 175 175 217 431 107 657 -40 83 -146 195 -229 242
-101 57 -262 85 -379 65z m200 -363 l0 -100 100 0 101 0 -3 -97 -3 -98 -97 -3
-97 -3 -3 -97 -3 -97 -97 -3 -98 -3 0 101 0 100 -100 0 -100 0 0 100 0 100
100 0 100 0 0 100 0 100 100 0 100 0 0 -100z"/>
<path d="M453 1065 c-17 -7 -36 -22 -42 -34 -14 -25 -14 -176 -1 -202 20 -36
67 -51 146 -47 65 3 77 7 101 31 25 24 28 36 31 105 3 91 -8 120 -58 144 -42
22 -132 23 -177 3z"/>
<path d="M955 1069 c-52 -15 -65 -43 -65 -142 0 -79 2 -90 24 -112 31 -31 67
-37 200 -33 l109 3 17 50 c21 62 65 150 94 190 12 17 26 36 30 43 6 9 -34 12
-186 11 -106 0 -206 -5 -223 -10z"/>
</g>
</svg>
